<svg width="14" height="12" viewBox="0 0 14 12" fill="none" xmlns="http://www.w3.org/2000/svg">
<path d="M8.0692 0.650802L12.7755 5.3358C13.1292 5.6883 13.1292 6.312 12.7755 6.6658L8.0692 11.3508C7.7017 11.7158 7.1079 11.7145 6.7429 11.347C6.3779 10.9795 6.3779 10.387 6.7454 10.0208L9.8417 6.937H1.8979C1.3792 6.937 0.960402 6.517 0.960402 5.9995C0.960402 5.482 1.3792 5.062 1.8979 5.062H9.8417L6.7454 1.9795C6.5617 1.7958 6.4704 1.5558 6.4704 1.3145C6.4704 1.0758 6.5617 0.8358 6.7429 0.6533C7.1079 0.287 7.7017 0.285802 8.0692 0.650802Z" fill="white"/>
</svg>
