<svg width="14" height="12" viewBox="0 0 14 12" fill="none" xmlns="http://www.w3.org/2000/svg">
<path d="M5.93081 11.3492L1.22456 6.6642C0.870806 6.3117 0.870806 5.688 1.22456 5.3342L5.93081 0.64922C6.29831 0.28422 6.89211 0.285469 7.25711 0.652969C7.62211 1.0205 7.62211 1.613 7.25461 1.9792L4.15831 5.063H12.1021C12.6208 5.063 13.0396 5.483 13.0396 6.0005C13.0396 6.518 12.6208 6.938 12.1021 6.938H4.15831L7.25461 10.0205C7.43831 10.2042 7.52961 10.4442 7.52961 10.6855C7.52961 10.9242 7.43831 11.1642 7.25711 11.3467C6.89211 11.713 6.29831 11.7142 5.93081 11.3492Z" fill="white"/>
</svg>
